<svg width="31" height="29" viewBox="0 0 41 39" fill="none" xmlns="http://www.w3.org/2000/svg">
<path d="M25 22.4688V36.5312C25 37.8252 23.9502 38.875 22.6562 38.875H2.34375C1.0498 38.875 0 37.8252 0 36.5312V22.4688C0 21.1748 1.0498 20.125 2.34375 20.125H6.64062L7.24121 18.5186C7.58301 17.6055 8.45703 17 9.43359 17H15.5615C16.5381 17 17.4121 17.6055 17.7539 18.5186L18.3594 20.125H22.6562C23.9502 20.125 25 21.1748 25 22.4688ZM18.3594 29.5C18.3594 26.2676 15.7324 23.6406 12.5 23.6406C9.26758 23.6406 6.64062 26.2676 6.64062 29.5C6.64062 32.7324 9.26758 35.3594 12.5 35.3594C15.7324 35.3594 18.3594 32.7324 18.3594 29.5ZM16.7969 29.5C16.7969 31.8682 14.8682 33.7969 12.5 33.7969C10.1318 33.7969 8.20312 31.8682 8.20312 29.5C8.20312 27.1318 10.1318 25.2031 12.5 25.2031C14.8682 25.2031 16.7969 27.1318 16.7969 29.5Z" fill="black"/>
<path d="M34.0547 13.1001V16.1641H21.8721V13.1001H34.0547ZM29.6357 8.27832V21.2178H26.3032V8.27832H29.6357Z" fill="black"/>
</svg>
